<svg width="121" height="121" viewBox="0 0 121 121" fill="none" xmlns="http://www.w3.org/2000/svg">
<path d="M70.9683 61.9777L89.8151 45.2797V76.6613L70.9683 61.9777ZM30.987 45.2797V76.6616L49.8338 61.9777L30.987 45.2797ZM62.2662 69.688C61.7339 70.1595 61.0674 70.3953 60.401 70.3953C59.7347 70.3953 59.0682 70.1595 58.5359 69.688L54.1163 65.7723L36.2944 79.6576H84.5079L66.6858 65.7723L62.2662 69.688ZM56.0585 59.9776L60.401 63.8251L85.2474 41.8114H35.5547L56.056 59.9755C56.0569 59.9762 56.0578 59.9769 56.0585 59.9776ZM120.401 60.7344C120.401 93.8185 93.4852 120.734 60.401 120.734C27.3169 120.734 0.401047 93.8185 0.401047 60.7344C0.401047 27.6505 27.3169 0.734375 60.401 0.734375C93.4852 0.734375 120.401 27.6505 120.401 60.7344ZM95.4401 43.5132C95.4401 39.4733 92.2498 36.1864 88.3285 36.1864H32.4736C28.5523 36.1864 25.362 39.473 25.362 43.5132V77.9555C25.362 80.0544 26.2242 81.9484 27.6014 83.2852L27.6043 83.288C28.8778 84.5232 30.5909 85.2823 32.4736 85.2823H88.3282C92.2496 85.2823 95.4399 81.9957 95.4399 77.9555V43.5132H95.4401Z" fill="white"/>
</svg>
