<svg width="120" height="120" viewBox="0 0 120 120" fill="none" xmlns="http://www.w3.org/2000/svg">
<path d="M60 0C26.8533 0 0 26.8533 0 60C0 93.1467 26.8533 120 60 120C93.1467 120 120 93.1467 120 60C120 26.8533 93.1467 0 60 0ZM77.2267 37.6267C77.2267 37.6267 70.88 37.5733 69.28 37.5733C66.88 37.5733 65.28 39.6533 65.28 41.76V50.5867H77.2267L75.8667 62.6133H65.1467V93.3333H53.0133V62.7733H42.7733V50.4533H53.1733C53.1733 50.4533 53.1733 46.1333 53.1733 38.8267C53.1733 32.3467 60.3733 26.64 65.3867 26.64C66.1333 26.64 77.2267 26.7467 77.2267 26.7467V37.6267Z" fill="white"/>
</svg>
