<svg width="120" height="120" viewBox="0 0 120 120" fill="none" xmlns="http://www.w3.org/2000/svg">
<path fill-rule="evenodd" clip-rule="evenodd" d="M0 60C0 26.8533 26.8533 0 60 0C93.1467 0 120 26.8533 120 60C120 93.1467 93.1467 120 60 120C26.8533 120 0 93.1467 0 60ZM72.7467 93.3333C84.1067 93.3333 93.3333 84.1067 93.3333 72.7467V47.28C93.3333 35.92 84.1067 26.6933 72.7467 26.6933H47.28C35.92 26.6933 26.6933 35.92 26.6933 47.28V72.7467C26.6933 84.1067 35.92 93.3333 47.28 93.3333H72.7467ZM72.7467 34.1067H47.28C40.0267 34.1067 34.1067 40 34.1067 47.28V72.7467C34.1067 80 40 85.92 47.28 85.92H72.7467C80 85.92 85.92 80.0267 85.92 72.7467V47.28C85.8933 40 80 34.1067 72.7467 34.1067ZM60 77.04C50.6133 77.04 42.96 69.3867 42.96 60C42.96 50.6133 50.6133 42.96 60 42.96C69.3867 42.96 77.04 50.6133 77.04 60C77.04 69.3867 69.3867 77.04 60 77.04ZM77.8933 44.8533C76.2933 44.8533 75.0133 43.5733 75.0133 41.9733C75.0133 40.3733 76.2933 39.0933 77.8933 39.0933C79.4933 39.0933 80.7733 40.3733 80.7733 41.9733C80.7733 43.5733 79.4933 44.8533 77.8933 44.8533ZM70.3584 60.1261C70.427 54.4118 65.8502 49.7238 60.1359 49.6553C54.4216 49.5867 49.7336 54.1635 49.6651 59.8778C49.5965 65.5921 54.1733 70.28 59.8876 70.3486C65.6019 70.4172 70.2898 65.8404 70.3584 60.1261Z" fill="white"/>
</svg>
