<svg width="121" height="121" viewBox="0 0 121 121" fill="none" xmlns="http://www.w3.org/2000/svg">
<path d="M60.401 0.734375C27.269 0.734375 0.401039 27.6024 0.401039 60.7344C0.401039 93.8664 27.269 120.734 60.401 120.734C93.5331 120.734 120.401 93.8664 120.401 60.7344C120.401 27.6024 93.5331 0.734375 60.401 0.734375ZM42.9657 91.4375H28.353V47.4748H42.9657V91.4375ZM35.6598 41.4717H35.5646C30.661 41.4717 27.4897 38.0961 27.4897 33.8774C27.4897 29.5634 30.7581 26.2812 35.7569 26.2812C40.7557 26.2812 43.8318 29.5634 43.927 33.8774C43.927 38.0961 40.7557 41.4717 35.6598 41.4717ZM95.6562 91.4375H81.0453V67.9185C81.0453 62.0079 78.9295 57.9768 73.6423 57.9768C69.6058 57.9768 67.2016 60.6959 66.1451 63.3207C65.7587 64.2601 65.6644 65.5729 65.6644 66.8867V91.4375H51.0526C51.0526 91.4375 51.2439 51.5992 51.0526 47.4748H65.6644V53.6995C67.6062 50.7039 71.0807 46.443 78.8334 46.443C88.4473 46.443 95.6562 52.7263 95.6562 66.2294V91.4375Z" fill="white"/>
</svg>
