<svg width="120" height="120" viewBox="0 0 120 120" fill="none" xmlns="http://www.w3.org/2000/svg">
<path fill-rule="evenodd" clip-rule="evenodd" d="M60 120C93.1371 120 120 93.137 120 59.9999C120 26.8629 93.1371 0 60 0C26.8628 0 0 26.8629 0 59.9999C0 93.137 26.8628 120 60 120ZM78.7179 27.9505C79.629 24.7142 76.4883 22.8004 73.62 24.8439L33.5793 53.3687C30.4686 55.5848 30.9579 59.9999 34.3143 59.9999H44.8581V59.9183H65.4075L48.6636 65.8262L41.2821 92.0495C40.371 95.2859 43.5114 97.1996 46.38 95.156L86.4207 66.6314C89.5314 64.4153 89.0418 59.9999 85.6857 59.9999H69.6963L78.7179 27.9505Z" fill="white"/>
</svg>
