<svg width="121" height="121" viewBox="0 0 121 121" fill="none" xmlns="http://www.w3.org/2000/svg">
<path fill-rule="evenodd" clip-rule="evenodd" d="M27.4002 10.8462C37.2671 4.25331 48.8675 0.734375 60.7344 0.734375C76.6474 0.734375 91.9086 7.05578 103.161 18.308C114.413 29.5601 120.734 44.8214 120.734 60.7344C120.734 72.6012 117.215 84.2016 110.623 94.0686C104.03 103.936 94.659 111.626 83.6954 116.167C72.7318 120.708 60.6678 121.897 49.029 119.581C37.3901 117.266 26.6991 111.552 18.308 103.161C9.91684 94.7696 4.2024 84.0786 1.88729 72.4398C-0.427828 60.8009 0.760372 48.7369 5.30163 37.7734C9.84289 26.8098 17.5332 17.4391 27.4002 10.8462ZM86.3706 75.5784C88.9009 71.2825 90.3118 66.42 90.4739 61.437H90.4975C90.6442 56.8984 89.7504 52.3865 87.8846 48.2466C86.0188 44.1067 83.2305 40.4486 79.7331 37.5523C76.2357 34.6561 72.122 32.5985 67.7069 31.5371C63.2917 30.4757 58.6923 30.4386 54.2606 31.4287C49.8289 32.4187 45.6825 34.4097 42.1389 37.2492C38.5952 40.0886 35.7483 43.7013 33.816 47.8106C31.8836 51.9198 30.9172 56.4168 30.9907 60.9571C31.0641 65.4974 32.1755 69.9608 34.2397 74.0054L31.0818 89.337C31.0489 89.4902 31.0481 89.6485 31.0794 89.802C31.1106 89.9555 31.1732 90.1009 31.2633 90.2291C31.3952 90.4208 31.5816 90.5685 31.7984 90.653C32.0152 90.7374 32.2523 90.7548 32.4791 90.7028L47.4791 87.1344C51.9447 89.3515 56.8955 90.4117 61.8774 90.2176C66.8592 90.0236 71.7126 88.5815 75.9921 86.0237C80.2716 83.4658 83.8403 79.8742 86.3706 75.5784ZM77.1948 44.0372L77.3133 44.1556C81.6263 48.5315 84.0376 54.433 84.0228 60.5771C84.008 66.7212 81.5684 72.6111 77.2343 76.9661C73.7823 80.4148 69.3353 82.6935 64.5197 83.4809C59.7042 84.2684 54.7629 83.5251 50.3922 81.3556L48.2922 80.3135L39.0791 82.5004V82.3819L40.9975 73.0819L39.9712 71.0609C37.4751 66.1206 36.8195 60.4531 38.1218 55.0735C39.4241 49.6938 42.5991 44.9536 47.0783 41.7019C51.5574 38.4501 57.0479 36.8993 62.5663 37.3272C68.0847 37.7551 73.2706 40.1338 77.1948 44.0372ZM71.2264 74.7004C73.4606 74.1556 75.2527 71.9846 76.3817 70.2083L76.3975 70.1609C76.576 69.8788 76.6865 69.5591 76.7204 69.227C76.7543 68.895 76.7106 68.5595 76.5927 68.2472C76.4748 67.9349 76.286 67.6543 76.0411 67.4274C75.7963 67.2005 75.5021 67.0336 75.1817 66.9398L69.4185 65.2819C69.0308 65.1786 68.6219 65.186 68.2382 65.3032C67.8545 65.4204 67.5113 65.6428 67.2475 65.9451L65.8343 67.374C65.5453 67.6726 65.1737 67.878 64.7672 67.9638C64.3606 68.0496 63.9377 68.0119 63.5527 67.8556C61.439 66.7703 59.497 65.379 57.7896 63.7267C56.1992 62.3835 54.7995 60.8297 53.6291 59.1083C53.4221 58.7475 53.3273 58.3333 53.3568 57.9185C53.3864 57.5037 53.5389 57.1071 53.7948 56.7793L55.0264 55.2004C55.2633 54.8949 55.4127 54.5308 55.4586 54.147C55.5045 53.7632 55.4452 53.3741 55.2869 53.0214L52.8633 47.4951C52.7317 47.1865 52.5293 46.9132 52.2726 46.6972C52.0158 46.4812 51.7119 46.3286 51.3853 46.2518C51.0587 46.1749 50.7186 46.176 50.3925 46.2548C50.0664 46.3336 49.7634 46.4881 49.508 46.7056C47.8975 48.0635 45.9869 50.1319 45.758 52.4214C45.3712 56.4556 47.108 61.5477 53.6527 67.6583L53.7475 67.7451C61.2712 74.7004 67.279 75.6556 71.2264 74.7004Z" fill="white"/>
</svg>
